<?xml version="1.0" encoding="UTF-8"?>
<svg width="16px" height="16px" viewBox="0 0 16 16" version="1.1" xmlns="http://www.w3.org/2000/svg" xmlns:xlink="http://www.w3.org/1999/xlink">
    <!-- Generator: Sketch 54.1 (76490) - https://sketchapp.com -->
    <title>Bee Favicon</title>
    <desc>Created with Sketch.</desc>
    <defs>
        <path d="M8,5 C6.34314575,5 5,6.34314575 5,8 L5,12 C5,13.6568542 6.34314575,15 8,15 C9.65685425,15 11,13.6568542 11,12 L11,8 C11,6.34314575 9.65685425,5 8,5 Z M8,14 C6.8954305,14 6,13.1045695 6,12 L10,12 C10,13.1045695 9.1045695,14 8,14 Z M10,11 L6,11 L6,9 L10,9 L10,11 Z M6,8 C6,6.8954305 6.8954305,6 8,6 C9.1045695,6 10,6.8954305 10,8 L6,8 Z M15.33,9.605 L12,6.5 L12,11.05 C12,12.1545695 12.8954305,13.05 14,13.05 C15.1045695,13.05 16,12.1545695 16,11.05 C15.997072,10.4938987 15.7525507,9.96653573 15.33,9.605 L15.33,9.605 Z M14,12 C13.4666665,12.0006671 13.0266663,11.5826668 13,11.05 L13,8.8 L14.65,10.335 L14.65,10.335 C14.8685015,10.5083729 14.9971026,10.7710866 15,11.05 C14.9733337,11.5826668 14.5333335,12.0006671 14,12 Z M2.12607709e-16,11.05 C3.47878459e-16,12.1545695 0.8954305,13.05 2,13.05 C3.1045695,13.05 4,12.1545695 4,11.05 L4,6.5 L0.67,9.605 C0.247449276,9.96653573 0.00292802209,10.4938987 0,11.05 L2.12607709e-16,11.05 Z M1.33,10.355 L1.33,10.355 L3,8.8 L3,11.05 C3,11.6022847 2.55228475,12.05 2,12.05 C1.44771525,12.05 1,11.6022847 1,11.05 C1.0038675,10.7814068 1.12430369,10.5277609 1.33,10.355 L1.33,10.355 Z M5.75,2 C6.16421356,2 6.5,2.33578644 6.5,2.75 C6.5,3.16421356 6.16421356,3.5 5.75,3.5 C5.33578644,3.5 5,3.16421356 5,2.75 C5,2.33578644 5.33578644,2 5.75,2 L5.75,2 Z M5.75,1 C4.78350169,1 4,1.78350169 4,2.75 C4,3.71649831 4.78350169,4.5 5.75,4.5 C6.71649831,4.5 7.5,3.71649831 7.5,2.75 C7.5,1.78350169 6.71649831,1 5.75,1 Z M10.25,2 C10.6642136,2 11,2.33578644 11,2.75 C11,3.16421356 10.6642136,3.5 10.25,3.5 C9.83578644,3.5 9.5,3.16421356 9.5,2.75 C9.5,2.33578644 9.83578644,2 10.25,2 L10.25,2 Z M10.25,1 C9.28350169,1 8.5,1.78350169 8.5,2.75 C8.5,3.71649831 9.28350169,4.5 10.25,4.5 C11.2164983,4.5 12,3.71649831 12,2.75 C12,1.78350169 11.2164983,1 10.25,1 Z" id="path-1"></path>
    </defs>
    <g id="Bee-Favicon" stroke="none" stroke-width="1" fill="none" fill-rule="evenodd">
        <g id="icon/image/bee/16">
            <mask id="mask-2" fill="white">
                <use xlink:href="#path-1"></use>
            </mask>
            <use id="icon-color" fill="#000000" fill-rule="evenodd" xlink:href="#path-1"></use>
        </g>
    </g>
</svg>